# xmcd
#
# Track frame offsets:
#	150
#	16560
#	27344
#	36080
#	45499
#	55280
#	63799
#	70881
#
# Disc length: 1010 seconds
#
# Revision: 0
# Processed by: cddbd v1.5.2PL0 Copyright (c) Steve Scherf et al.
# Submitted via: EZCDAudioConverter 2.2.0.1
#
DISCID=5c03f008
DTITLE=Banjo Wizard
DYEAR=1900
DGENRE=
TTITLE0=Duellin Banjos
TTITLE1=Waltzing Matilda
TTITLE2=Fireball Mail
TTITLE3=Home Sweet Home
TTITLE4=Ruebans Train
TTITLE5=Bear Tracks
TTITLE6=Wildwood Flower
TTITLE7=Reflections
EXTD=
EXTT0=
EXTT1=
EXTT2=
EXTT3=
EXTT4=
EXTT5=
EXTT6=
EXTT7=
PLAYORDER=
